<?xml version="1.0" encoding="UTF-8"?>
<svg id="Layer_1" data-name="Layer 1" xmlns="http://www.w3.org/2000/svg" viewBox="0 0 1080 1080">
  <defs>
    <style>
      .cls-1 {
        fill: #fefefd;
      }

      .cls-2 {
        fill: #af1e22;
      }

      .cls-3 {
        fill: #ae1e21;
      }

      .cls-4 {
        fill: #fefefe;
      }

      .cls-5 {
        fill: #af1f21;
      }

      .cls-6 {
        fill: #af2022;
      }

      .cls-7 {
        fill: #fdfdfd;
      }
    </style>
  </defs>
  <rect class="cls-6" x="-8.27" y="-8.27" width="1096.54" height="1096.54"/>
  <g>
    <path class="cls-1" d="M520.04,924.09l-55.26-23.7c-53.17-25.31-92.12-57.79-125.91-105.97-12.96-18.47-23.78-37.99-31.92-59.01-4.34-11.21-7.74-22.03-9.6-33.89l-7.21-45.85-15.12-1.97c-12.12-2.62-22.8-8.35-32.06-16.68-8.64-7.77-14.85-17.44-19.38-28.18-4.31-10.22-7.43-20.48-8.63-31.52l-3.64-33.39c-.57-5.18-1.69-9.91-3.38-14.78l-7.17-20.66c-2.78-8.01-4.9-15.96-5.3-24.53-1.09-23.44,9.55-44.99,27.6-59.57,10.95-8.85,23.21-15.15,37.47-17.16.61-27.99,6.58-54.67,25.61-75.51,1.1-1.25,1.27-2.45,1.28-4.15.04-19.78,1.56-39.11,5.79-58.4,4.72-21.49,12.72-36.65,28.49-51.85,5.86-5.65,11.53-10.79,18.12-15.67,32.77-24.27,72.48-41.49,111.77-52.56,27.99-7.89,56.23-13.13,85.27-14.73,32.1-1.76,60.67,6.38,84.15,28.33,8.53,7.97,16.23,16.58,21.89,26.78l8.46,15.23,26.01-16.09,21.73-10.49c37.52-15.47,73.94-16.7,108.73,6.09,17.42,11.41,32.62,25.86,45.42,42.24,20.11,25.75,28.29,58.6,21.63,90.67-2.91,14-8.48,26.9-16.15,38.94-9.37,14.71-20.63,27.65-33.86,38.86l-11.72,9.94c27.1,51.24,49.97,100.34,62.58,157.26l6.87,37.64c3.71,26.52,2.2,52.74-3.81,78.79-4.75,20.58-11.21,40.18-20.88,58.92l-9.51,18.41-30.18,50.56-17.85,26.66c-9.25,13.82-20.05,25.97-31.7,37.9-15.76,16.13-32.77,30.24-51.69,42.48l-24.76,13.91c-16.94,8.55-34.59,14.01-53.49,16.64-21.53,3-42.86,2.58-64.02-2.57-18.73-4.56-36.36-10.5-54.68-17.35Z"/>
    <path class="cls-2" d="M607.89,915.99c-12.99-.39-24.52-2.93-36.61-6.53-31.74-9.46-62.52-21.24-92.49-35.4-19.38-9.16-37.71-19.61-54.7-32.54-28.99-22.06-53.73-50.64-72.47-81.78-17.91-29.77-25.05-53.95-29.54-88.28l-6.9-52.82c-23.35,12.74-50.09,7.3-62.4-16.53-4.27-9.91-7.44-19.79-9.04-30.49l-2.31-22.9c-1.31-12.97-3.85-25.01-8.4-37.15l-7-21.38c-3.42-14,.24-27.81,10.36-38.04,7.85-8.63,18.22-14.85,30.1-15.76,9.33-.72,17.85,2.35,26.47,6.57-3.9-23.3-5.12-47.15,1.9-69.31,4.14-12.15,11.36-24.17,22.79-30.53-1.81-24.25-.53-55.1,6.88-77.98,2.46-7.58,6.09-14.27,11.32-20.31,6.4-7.39,13.47-13.46,21.31-19.41,15.83-12,32.83-21.7,51.09-29.78,33.49-14.82,68.71-24.86,105.06-29.68,14.81-1.96,29.09-2.56,43.8-1.53,19.43,1.37,36.28,11.55,49.58,25.42,16.18,18.82,21.76,37.97,24.26,62.64l30.51-19.33,30.55-19.24c9.55-5.21,19.05-9.59,29.44-12.83,6.99-2.18,13.74-3.28,21.08-4.24,14.38-1.88,28.51.46,41.41,7.58,15.7,8.67,29.41,20.53,41.03,34.21,8.47,9.98,14.78,20.85,18.74,33.25,7.44,23.34,2.08,48.71-11.34,69.01-12.15,18.38-30.6,35.93-49.37,47.5.32,6.49-.85,12.18-3.54,17.65l14.62,26.41,27.17,57.93c16.55,38.58,27.45,79.03,32.36,120.67,1.15,9.75,1.37,18.8.62,28.49-2.84,36.48-14.46,69.33-32.09,101.24l-36.51,60.34c-13.85,21.25-29.56,40.69-48.12,57.86l-16.53,14.13c-33.59,26.19-68.89,44.18-113.07,42.87Z"/>
    <path class="cls-1" d="M519.92,631.38c8.53,2.08,16.09,5.31,23.59,9.3l24.45,13.02c20.85,11.11,42.24,21.41,66.85,17.59l13.74-2.13c-16.12,16.91-40.39,22.26-62.05,14.14-14.35-5.37-26.79-13.69-37.67-24.33-2.31-2.06-4.96-2.63-7.31-.96-2.15,1.54-3,4.43-1.67,7.23,5.15,10.79,12.59,20.17,21.7,28,11.61,9.98,25.38,15.46,40.74,16.77,15.84,1.42,32.01-1.43,45.25-10.55,14.03-9.67,22.58-25.24,25.51-41.7,10.36-6.04,19.29-13.46,27.16-22.27l13.25-13c2.48-2.6,4.92-5.12,7.84-7.1,3.44-2.33,7.21-1.67,9.93,1.48,3.53,4.09,5.64,9.14,6.63,14.68,1.92,10.7,1.85,21.34.18,32.26-2.12,13.88-5.65,27.2-10.29,40.36-3.57,10.11-9.14,18.28-16.92,25.48-9.4,8.69-19.78,15.59-31.51,20.95-47.54,21.75-101.19,17.79-148.61-2.34-10.11-4.29-19.14-9.51-27.64-16.29s-14.77-15.12-18.57-25.37c-4.12-11.12-5.88-22.8-5.26-34.66.58-11.05,4.48-20.79,11.3-29.31,2.73-3.4,5.38-6.73,9.28-8.91,6.02-3.38,13.02-4.05,20.09-2.32Z"/>
    <path class="cls-4" d="M578.09,862.21c4.7,1.18,6.33,6.23,5.53,9.79-.97,4.28-5.15,7.76-9.78,6.6-15.14-3.83-29.77-8.03-44.45-13.48-36.09-13.37-69.81-32.35-99.64-56.41-4.01-3.24-4.82-8.46-1.99-12.26,2.51-3.39,8.06-4.8,12.03-1.57,41.37,33.65,86.3,54.25,138.31,67.33Z"/>
    <path class="cls-4" d="M670,486.85c14.19,21.01,23.1,47.67,22.64,73.08-.35,19.52-13.42,35.91-32.42,40.39-10.23,2.41-21.02,2.8-31.26.35-7.71-1.84-14.35-5.36-21.6-8.4l-41.46-17.34c-15.14-6.33-40.11-12.89-56.31-12.21-11.55.49-22.43,3.2-33.03,7.53-27.5,11.45-42.59,33.63-50.88,61.73-16.16-15.08-27.25-33.5-33.3-54.4-13.6-47-5.39-99.82,35.99-129.37,12.47-8.91,26.05-15,40.43-20.14,4.5-1.61,4.65-7.77,2.54-11.27-6.91-11.51-11.5-23.65-14.17-36.75s-1.38-26.6,10.35-32.9c3.79-2.04,7.73-2.99,12.23-3.64,7.2,7.78,15.71,13.53,25.38,18.05,29.38,13.75,66.36,15.42,98.08,9.96,6.35-1.09,12.01-2.78,17.89-5.21,8.5,1.88,16.66,3.39,25.62,3.27,23.36-.31,45.56-9.48,62.45-25.51,18.18,15.88,33.41,33.86,46.48,53.87l24.79,42.73,24.19,51.27c5.54,11.74,10.13,23.35,14.21,36.25-10.37-4.21-20.02-7.21-30.83-7.19-14.13.03-27.61,2.26-41.02,6.52-14.2,4.72-26.8,12.08-38.07,21.99-.45.4-.98.15-1.04-.59-2.54-32.84-15.72-63.44-37.9-87.76-4.87-5.34-10.04-9.83-15.63-14.34-3.45-2.78-7.94-2.75-10.98.43-2.65,2.78-3.06,8.2.57,11.16,10.09,8.22,18.69,17.57,26.03,28.44Z"/>
    <path class="cls-3" d="M538.46,524.85c-6.81,1.15-13.04-1.33-17.51-6.23-8.72-9.54-9.5-24.17-1.3-34.2,6.63-8.11,18.03-8.7,25.87-2.08,9.38,7.92,10.68,23.34,4.71,34.12-2.48,4.47-6.54,7.51-11.77,8.39Z"/>
    <path class="cls-5" d="M717.7,493.3c-10.83,2.89-19.05-7.28-21.26-19.53-2.09-11.64,2.74-25.62,13.13-26.94,4.07-.52,8.25,1,11.37,4.24,13.47,14.02,9.2,38.91-3.24,42.23Z"/>
    <path class="cls-7" d="M776.5,248.42c8.81,3.55,15.1,10.06,20.07,17.65,1.15,1.76,3.35,2.88,5.4,3.08,3.1.3,5.65-1.49,6.98-3.53,1.73-2.65,1.8-6.19.02-8.8-3.25-4.74-6.78-9.08-11.03-13.02-9.15-8.47-20.92-13.33-33.42-12.99-13.21.36-23.09,9.66-31.86,18.9l-5.5,5.8-21.46,24.56-29.02,30.93c-12.35,11.75-25.12,22.2-39.82,30.83-13.74,8.07-28.27,13.18-44.14,15.37-29.21,4.03-64.24.96-89.62-14.51-6.21-3.79-10.93-8.47-15.28-14.25-1.25-1.65-4.57-1.56-6.59-1.27-24.48,3.44-48.53,6.1-73.29,7.23l-38.1.46-37.09-.31c-1.05-20.87.55-41.59,6.01-61.55,2.5-9.15,7.2-16.78,13.92-23.1,13.17-12.37,27.51-22.51,43.51-30.94,16.93-8.92,34.23-15.95,52.45-21.99,30.07-9.98,60.79-16.36,92.48-17.64,7.88-.32,15.38-.15,22.87,1.87,16.17,4.36,29.31,15.15,38.29,29.04,9.86,15.25,11.96,32.33,13.23,50.32-11.13,5.73-22.76,9.31-34.9,12.12-3.87.9-6.33,4.4-6.15,8.05.18,3.64,3.2,7.5,7.44,7.03,9.04-1.01,17.55-3.74,26.04-6.91l21.91-9.74c14.24-7.52,27.48-15.83,40.61-25.18,12.35-8.8,24.89-16.45,38.46-23.12,11.11-5.47,22.32-8.75,34.59-10.45,12.37-1.71,24.36.43,35.05,6.97,9.99,6.11,18.77,13.31,27.07,21.59,8.79,8.77,16.04,18.42,21,29.83,8.32,19.13,5.39,38.69-4.55,56.67-4.91,8.86-11.01,16.4-18,23.78-6.5,6.86-13.79,12.49-21.24,18.41-.44.35-.86.15-.99-.48-6.71-27.05-22.16-50.62-43.66-68.22-6.04-4.95-11.91-9.24-18.97-12.71l20.2-22.59c5.52-6.17,10.88-12.36,17.94-16.87,5.53-3.53,12.97-2.8,19.14-.31Z"/>
    <path class="cls-5" d="M356.29,319.05c-4.83-.46-7.06-5.01-6.65-8.77.48-4.36,4.37-7.25,9.04-6.73,38.77,4.31,80.63.65,118.9-6.83,4.36-.85,7.9,2.96,8.41,6.54.66,4.53-2.39,8.18-6.85,8.9l-33.29,5.34c-29.8,3.71-59.35,4.43-89.58,1.55Z"/>
    <path class="cls-4" d="M295.28,609.32c-12.68,2.17-24.01-4.08-28.95-15.45-4.04-9.28-6.61-18.7-7.55-28.86l-2.07-22.51c-1.29-14.03-4.74-27.15-10.2-40.1-2.69-6.37-4.57-12.72-5.66-19.5-1.21-7.52,1.39-14.37,6.75-19.52,7.81-7.51,14.77-13.41,26.32-10.87,5.67,1.24,10.92,3.45,15.81,6.67,7.91,5.21,15.1,11.02,21.28,18.32,17.87,21.1,23.14,52.44,22.17,79.62-.51,14.35-4.32,32.03-15.19,41.4-6.49,5.6-14.1,9.32-22.71,10.8Z"/>
    <path class="cls-3" d="M296.71,575.54c4.3,2.28,5.45,7.12,3.44,10.9-2.24,4.2-7.25,5.19-11.59,2.8-15.45-8.49-20.96-29.62-17.07-46.67,3.26-14.27,13.71-20.97,27.47-24.04-.09-9.05-3.7-19.32-12.51-20.79-4.62-.77-7.45-5.08-6.08-9.64,1.05-3.5,4.26-6.16,8.12-5.86,20.48,1.59,28.45,26.82,25.86,45.31-.32,2.26-3.64,5.03-5.58,5.33l-10.44,1.63c-6.02,1.87-10.54,6.56-11.61,12.96-1.67,10.01.72,23.16,9.99,28.07Z"/>
  </g>
</svg>