<?xml version="1.0" encoding="UTF-8"?>
<svg id="Layer_1" data-name="Layer 1" xmlns="http://www.w3.org/2000/svg" viewBox="0 0 1080 1080">
  <defs>
    <style>
      .cls-1 {
        fill: #fefefe;
      }
    </style>
  </defs>
  <g id="ZdB1eN">
    <g>
      <path class="cls-1" d="M253.29,710.07l-85.71.4c-8.51-10.27-18.16-18.32-28.12-25.6s-11.54-16.58-15.89-27.14l-27.01-65.44c-6.79-16.44-11.09-32.21-8.45-50.57,8.76,1.44,16.8-2.12,25.26-2.17l41.32-.22,19.3,19.51c6.95-4.18,2.9-12.68,4.33-16.28,3.59-9.01,7.48-15.1,7.52-24.57l.37-88.47c.04-9.35-5.31-18.09-1.6-28.57,10.01,1.47,20.15-1.69,30.56-1.97l47.43-1.24c26.17-.68,53.91-10.47,76.33,12.82.08-7.67-3.27-11.61-2.43-17.4l41.91-1.07c12.53-.32,22.4-.22,34.31-1.19l32.31-2.64,56.48-2.61,59.6-2.61c28.79-1.26,68.69-5.38,80.54-4.46,14.43,1.12,27.92.2,42.3-3.59l30.56,29.68,12.45-30.63,58.42-1.55c5.25-.14,16.88-6.05,21.9-1.01l45.09,45.25c2.14,6.97,2.81,18.64,6.74,26.47l29.4,58.59c10.51,2.71,23.64,2.44,31.72,10.33l58.42,57.1c5.99,5.86,13.03,14.06,12.89,23.36-.19,13.14,2.98,28.87-.52,41.22-8.19,28.89-35.85,45.11-63.63,46.69l-42.99,2.44c-21.06,1.2-40.6,2.7-62.18,2.67-13.12-.02-27.14,7.08-40.44-.01-4.37-2.33-7.91-13.03-16.44-11.49-3.7.67-4.87,9.49-3.04,13.28-19.42,8.36-45.48-.89-69.05,6.1-4.16-4.49-6.84-8.38-11.95-11.3-15.85,8.59-33.44,12.96-51.91,13.28-32.41.56-62.97,2.94-95.38,8.97-16.35,3.04-33.55-7.09-48.61-13.95-1.84,2.61-1.75,6.88-3.01,9.35-1.51,2.97-6.46,4.47-10.87,4.58l-47.32,1.12c-6.63.16-9.71,1.91-15.76-1.85l-21.6,6.45-114.4.37-15.78-15.52c-2.67,4.33-2.64,7.33-3.38,15.06ZM785.3,492.61l.98,12.52,24.58-.28c10.92-.13,19.82-3.49,33.31-1.99-2.63-14.11-3.52-28.8-10.45-42.55l-28.3-56.14c-4.4-8.73-7.34-16.65-9.22-24.92-21.17,6.46-45.69-2.37-66.11,5.96-11.58,44.11-45.36,80.73-46.62,126.59,19.78-3.16,37.38-4.72,55.95-3.51l4.55-13.72c12-8.31,27.74-8.31,41.34-1.97ZM631.81,513.29c15.59-1.01,28.68-4.37,44-1.77-1.46-17.22,2.46-36.22,5.33-56.46-13.03,8.96-28.63,9.62-44.93,11.47-11.11,1.26-21.48,4.6-31.75.89,30.79-28.34,64.78-35.31,71.44-80.24l-45.32.71c-11.54.18-22.2,2.83-34.21,2.24-12.61-.62-24.25-.97-35.73,3.24-2.63,16.24-5.39,30.77-3.32,47.91,18.25-7.24,36.06-10.93,56.36-8.52l-15.29,15.34c-9.77,9.8-20.19,16.85-28.5,28.37-5.5,7.63-15.94,13.55-15.15,23.92,8.25-3.59,13.82-3.42,16.59.42,3.66,5.08,3.06,9.4-.64,16.77,20.66-5.64,39.27-2.88,61.13-4.29ZM460.75,522.15c-.27-8.6-.24-13.08,1.51-18.56,16.97-3,32.77-.27,50.1-.17,6.07.04,14.86-8.03,25.56-2.92l5.05-37.05c-24.48,8.64-47.85,12.53-73.97,10.53,24.7-26.89,65.43-38.35,68.39-80.55-14.33-2.26-26.35,1.67-39.85,1.94l-39.26.8c-12.77.26-23.66,3.16-37.28,1.93,1.16,10.73-2.17,19-2.2,28.7l-.05,22.31c13.59-8.24,37.77-11,57.45-9.76l-47.97,47.39c-10.52,10.39-17.69,23.11-18.7,37.34l51.22-1.92ZM344.9,528.05c18.78-4.61,34.53-3.32,56.12-2.49l.52-127.71c-19.71,4.72-36.44,3.48-56.88,3.33,5.02,6.17,2.07,13.41,2.93,19.81,3.89,28.71,4.72,55.66.13,84.34-1.19,7.46,2.26,15.03-2.83,22.73ZM246.44,529.8c-.43-11.25-1.47-19.76.97-29.93,19.41.85,36.15-.49,54.33-6.54,25.64-8.53,41.85-33.26,36.62-60.08-7.61-39.09-47.57-27.45-67.2-26.97l-47.51,1.15c-10.39.25-20.53,3.57-30.73,1.93-3.02,7.56,2.02,13.76,2.02,20.01l-.11,84.21c0,6.76-3.51,12.55-2.55,19.64,18.83-.25,35.58,2.6,54.16-3.43ZM541.74,534.48c-4.85-3.61-.41-8.72,3.6-4.48,3.85,1.59,7.28.85,8.54-.85,1.17-1.58,1.63-7.09-3.41-7.28-2.93-.11-7.65,4.51-12.32.57,7.6-7.24,16.11-7.57,25.37-2.55,3-3.11,3.28-12.63-.7-15.11-12.99,2.36-26.66,4.77-39.7,2.98l-.17,39.66h33.9c4.58.01,9.7-2.08,10.75-4.79,1.48-3.83,1.61-9.75-1.72-12.75-8.03,3.8-17.11,7.9-24.15,4.6ZM469.29,550.03c11.3.25,21.69,1.75,32.05-1.44,11.37-3.5,18.31-16.35,14.8-26.36-6.76-19.29-25.65-10.91-46.84-11.37l-.02,39.17ZM801.91,627.85c15.09,4.02,21.91-.73,32.19-1.17,21.72-.93,43.41.17,64.14-6.38,22.77-7.2,37.84-26.37,40.2-46.56,2.74-23.51-5.73-44.62-26.69-56.12-17.04-9.36-36.82-5.21-55.6-4.56l-52.94,1.83c3.94,11.56.67,24.24,2.7,35.21,2.85,15.41,2.86,27.09-.13,42.73-2.11,11.05,2.96,25-3.87,35.03ZM744.77,619.72c.8,4.1.95,11.23,3.31,11.83,2.16.55,6.22.97,9.39.73l41.14-3.15c-1.78-39.9-31.61-70.25-43.08-112.14-19.22,3.83-37.31,2.41-58.68,1.92-3,9.4-6.11,18.66-10.87,27.74-13.66,26.08-41.88,87.67-31.68,90.69,1.62.48,4.74-2.08,7.76-2.17l41.05-1.24c2.19-3.83,2.36-12.88,8.06-14.48,9.69-2.72,23.99-3.14,33.59.29ZM545.8,640.76c23.5-1.06,47.02.51,68.95-7.09,27.31-9.46,40.8-32.89,38.64-61.34-1.8-23.65-18.94-42.65-43.64-46.67l-33.19-.21c.09,7.81.85,22.14-6.6,26.13-15.24,8.18-32.76,3.06-50.31,4.23,5.23,19.98,4.19,39.19.53,59.3-1.51,8.28,2.96,18.28-2.74,26.83,9.07,4.07,18.11-.73,28.36-1.2ZM508.83,644.77l-.67-49.04c-22.06,18.52-51.34,20.9-76.19,11.98,18.51-1.74,35.41-1.99,51.29-9.6s25.22-23.99,22.31-42.72c-14.6,4.04-28.55,4.7-43.42,2.22-2.43-8.4-1.35-15.34-1.3-24.22l-42.51.47c-14.57.16-27.1,3.73-42.41,2-.71,6.47,2.66,11.7,2.64,17.32l-.27,83.89c-.01,4.6-5.01,10.17-1.2,13.6,16.61-4.38,33.05-.97,49.19-1.97,2.35-9.7-.54-17.18-.79-27.05,23.52,23.5,53.08,33.09,83.32,23.11ZM288.44,610.58c-4.96-10.08,15.19-8.33,39.29-3.34l-.16-28.61c-12.31,4.78-27.77,8.28-39.75,3.68-1.26-8.77,9.66-8.68,14.46-9.53,19.46-3.48,36.68-4.07,53.35,5.5l6.16-42.58c-12.73,3.6-23.81,4.14-36.66,3.28-13.77-.92-26.13,2.27-39.53,2.46l-44.58.63c-3.25,9.66,1.64,18.83,1.63,28.03l-.03,58.83c0,9.81-5.19,19.74-1.09,27.69,21.25-3.43,42.27-3.84,62.05-.49,20.69,3.5,39.13-1.76,59.63-10.47,2.98-14.19,5.77-28.49,3.84-44.93-23.69,15.2-72.51,22.25-78.62,9.85ZM133.75,662.88c7.91-2.56,12.4-3.12,18.89-3.11l42.91.04c12.18-40.12,37.06-75.57,39.5-118.13-15.55,4.64-29.89,3.25-47.25,2.3-4.39,23.58-9.69,46.03-22.61,68.56-10.95-20.2-19.1-42.38-21.95-65.4l-47.2,3.81c1.52,39.44,27.71,73.04,37.72,111.93Z"/>
      <path class="cls-1" d="M778.86,464.9c-10.95,6.37-21,4.45-30.75,2.6l16.17-36.26,14.59,33.66Z"/>
      <path class="cls-1" d="M284.24,457.14c-6.89,10.37-21.53,11.5-38.12,11.38l.09-27.84,35.95,1.18c4.96.16,4.66,11.4,2.08,15.28Z"/>
      <path class="cls-1" d="M888.33,575.63c-9.54,7.64-22.97,8.55-34.52,8.43l-.19-30.85,25.32-.1c5.75-.02,9.8,2.74,12.17,6.43s3.06,11.42-2.78,16.09Z"/>
      <path class="cls-1" d="M463.25,569.2c2.34,12.1-15.66,17.29-36.1,17.8l-.13-25.42,30.79.26c3.43.03,5.04,5.27,5.44,7.36Z"/>
      <path class="cls-1" d="M738.46,597.32l-26.83.41,13.16-33.34c5.08,10.17,10.58,18.03,13.66,32.93Z"/>
      <path class="cls-1" d="M607.19,581.85c-2.78,13.09-20.17,16.5-38.98,16.04l.04-30.65,30.98.41c6.09.08,8.93,9.64,7.96,14.2Z"/>
      <path class="cls-1" d="M502.51,526.43c2.08,2.04-2.76,7.09-5.18,8.49-3.15,1.81-9.52,2.85-11-.85s-.37-8.7,1.5-8.91c2.98-.35,8.64-1.49,14.68,1.28Z"/>
    </g>
  </g>
</svg>